PathFileType	4	(X/Y/Z)	C:\Users\86182\Documents\cortex\Trimmed_M4_H2.trc
DataRate	CameraRate	NumFrames	NumMarkers	Units	OrigDataRate	OrigDataStartFrame	OrigNumFrames
100.00	100.00	       169	2	mm	100.00	721	       901
Frame#	Time	gripper			box			
		X1	Y1	Z1	X2	Y2	Z2	

721	7.200	275.78275	151.00156	292.42511	278.34006	147.58199	156.40613	
722	7.210	275.78918	151.00093	292.42184	278.34686	147.58295	156.40027	
723	7.220	275.79510	151.00017	292.41910	278.35342	147.58383	156.39609	
724	7.230	275.80048	150.99921	292.41702	278.35901	147.58438	156.39429	
725	7.240	275.80518	150.99805	292.41568	278.36304	147.58423	156.39493	
726	7.250	275.80881	150.99681	292.41516	278.36511	147.58315	156.39740	
727	7.260	275.81073	150.99568	292.41559	278.36548	147.58139	156.40054	
728	7.270	275.81073	150.99490	292.41675	278.36469	147.57941	156.40320	
729	7.280	275.80890	150.99460	292.41840	278.36307	147.57742	156.40451	
730	7.290	275.80548	150.99486	292.42026	278.36075	147.57547	156.40421	
731	7.300	275.80072	150.99567	292.42218	278.35779	147.57372	156.40256	
732	7.310	275.79504	150.99690	292.42407	278.35437	147.57259	156.40010	
733	7.320	275.78934	150.99831	292.42581	278.35062	147.57259	156.39743	
734	7.330	275.78445	150.99960	292.42712	278.34668	147.57382	156.39514	
735	7.340	275.78091	151.00067	292.42804	278.34274	147.57614	156.39383	
736	7.350	275.77875	151.00145	292.42847	278.33960	147.57930	156.39365	
737	7.360	275.77780	151.00201	292.42853	278.33817	147.58308	156.39420	
738	7.370	275.77783	151.00241	292.42816	278.33914	147.58705	156.39490	
739	7.380	275.77881	151.00269	292.42731	278.34229	147.59039	156.39526	
740	7.390	275.78094	151.00272	292.42596	278.34644	147.59218	156.39520	
741	7.400	275.78412	151.00247	292.42413	278.34967	147.59189	156.39499	
742	7.410	275.78760	151.00200	292.42233	278.35031	147.58961	156.39529	
743	7.420	275.79068	151.00142	292.42090	278.34808	147.58598	156.39670	
744	7.430	275.79300	151.00079	292.42007	278.34396	147.58186	156.39920	
745	7.440	275.79398	151.00023	292.42007	278.33939	147.57796	156.40265	
746	7.450	275.79303	150.99985	292.42114	278.33554	147.57475	156.40665	
747	7.460	275.78995	150.99980	292.42316	278.33344	147.57254	156.41066	
748	7.470	275.78546	151.00005	292.42569	278.33340	147.57141	156.41409	
749	7.480	275.78049	151.00050	292.42831	278.33493	147.57120	156.41650	
750	7.490	275.77585	151.00101	292.43060	278.33725	147.57173	156.41766	
751	7.500	275.77234	151.00146	292.43225	278.33997	147.57291	156.41730	
752	7.510	275.77023	151.00180	292.43314	278.34296	147.57457	156.41536	
753	7.520	275.76947	151.00200	292.43335	278.34586	147.57631	156.41205	
754	7.530	275.76978	151.00204	292.43311	278.34799	147.57771	156.40793	
755	7.540	275.77063	151.00197	292.43265	278.34891	147.57855	156.40366	
756	7.550	275.77158	151.00179	292.43231	278.34872	147.57881	156.39972	
757	7.560	275.77237	151.00151	292.43222	278.34753	147.57851	156.39664	
758	7.570	275.77301	151.00114	292.43234	278.34488	147.57765	156.39526	
759	7.580	275.77347	151.00078	292.43259	278.34058	147.57643	156.39633	
760	7.590	275.77362	151.00052	292.43286	278.33511	147.57523	156.39977	
761	7.600	275.77365	151.00035	292.43311	278.32956	147.57437	156.40466	
762	7.610	275.77405	151.00017	292.43311	278.32498	147.57388	156.40982	
763	7.620	275.77533	150.99985	292.43274	278.32245	147.57370	156.41400	
764	7.630	275.77771	150.99940	292.43182	278.32272	147.57375	156.41623	
765	7.640	275.78116	150.99887	292.43036	278.32593	147.57405	156.41609	
766	7.650	275.78546	150.99834	292.42831	278.33148	147.57458	156.41382	
767	7.660	275.79037	150.99780	292.42587	278.33786	147.57510	156.41025	
768	7.670	275.79517	150.99731	292.42346	278.34311	147.57518	156.40662	
769	7.680	275.79868	150.99696	292.42163	278.34573	147.57449	156.40396	
770	7.690	275.79977	150.99692	292.42099	278.34531	147.57315	156.40289	
771	7.700	275.79807	150.99722	292.42166	278.34238	147.57158	156.40349	
772	7.710	275.79416	150.99780	292.42340	278.33743	147.57016	156.40561	
773	7.720	275.78918	150.99850	292.42560	278.33090	147.56898	156.40900	
774	7.730	275.78445	150.99911	292.42780	278.32349	147.56805	156.41296	
775	7.740	275.78088	150.99953	292.42957	278.31641	147.56744	156.41660	
776	7.750	275.77872	150.99971	292.43073	278.31085	147.56734	156.41891	
777	7.760	275.77780	150.99974	292.43127	278.30774	147.56784	156.41937	
778	7.770	275.77814	150.99965	292.43118	278.30740	147.56891	156.41803	
779	7.780	275.77979	150.99940	292.43045	278.30972	147.57033	156.41559	
780	7.790	275.78305	150.99895	292.42896	278.31442	147.57195	156.41272	
781	7.800	275.78790	150.99828	292.42679	278.32138	147.57378	156.40991	
782	7.810	275.79379	150.99741	292.42419	278.33044	147.57582	156.40746	
783	7.820	275.79996	150.99641	292.42163	278.34097	147.57794	156.40543	
784	7.830	275.80582	150.99538	292.41931	278.35193	147.57976	156.40372	
785	7.840	275.81107	150.99437	292.41736	278.36215	147.58095	156.40225	
786	7.850	275.81506	150.99355	292.41595	278.37036	147.58136	156.40115	
787	7.860	275.81705	150.99309	292.41531	278.37515	147.58099	156.40080	
788	7.870	275.81638	150.99310	292.41577	278.37531	147.57988	156.40152	
789	7.880	275.81277	150.99368	292.41727	278.37100	147.57819	156.40315	
790	7.890	275.80664	150.99478	292.41968	278.36343	147.57608	156.40518	
791	7.900	275.79871	150.99629	292.42261	278.35419	147.57388	156.40726	
792	7.910	275.78970	150.99811	292.42584	278.34491	147.57202	156.40918	
793	7.920	275.78046	151.00006	292.42902	278.33701	147.57083	156.41077	
794	7.930	275.77176	151.00197	292.43188	278.33109	147.57039	156.41180	
795	7.940	275.76431	151.00368	292.43427	278.32703	147.57056	156.41217	
796	7.950	275.75885	151.00500	292.43585	278.32419	147.57112	156.41194	
797	7.960	275.75607	151.00577	292.43655	278.32208	147.57193	156.41132	
798	7.970	275.75620	151.00589	292.43628	278.32065	147.57298	156.41037	
799	7.980	275.75867	151.00548	292.43527	278.32043	147.57423	156.40915	
800	7.990	275.76282	151.00468	292.43372	278.32196	147.57542	156.40758	
801	8.000	275.76797	151.00362	292.43195	278.32513	147.57610	156.40579	
802	8.010	275.77353	151.00237	292.43015	278.32947	147.57599	156.40405	
803	8.020	275.77863	151.00110	292.42868	278.33444	147.57518	156.40256	
804	8.030	275.78265	150.99997	292.42773	278.33972	147.57391	156.40146	
805	8.040	275.78561	150.99907	292.42712	278.34473	147.57234	156.40091	
806	8.050	275.78775	150.99841	292.42670	278.34863	147.57042	156.40109	
807	8.060	275.78903	150.99799	292.42648	278.35062	147.56808	156.40204	
808	8.070	275.78940	150.99774	292.42664	278.35034	147.56551	156.40372	
809	8.080	275.78906	150.99760	292.42703	278.34781	147.56326	156.40607	
810	8.090	275.78848	150.99753	292.42752	278.34320	147.56210	156.40887	
811	8.100	275.78827	150.99748	292.42773	278.33704	147.56248	156.41168	
812	8.110	275.78897	150.99739	292.42740	278.33032	147.56433	156.41385	
813	8.120	275.79083	150.99722	292.42645	278.32434	147.56708	156.41476	
814	8.130	275.79309	150.99704	292.42523	278.31995	147.56998	156.41434	
815	8.140	275.79468	150.99702	292.42419	278.31705	147.57242	156.41306	
816	8.150	275.79477	150.99725	292.42377	278.31528	147.57404	156.41171	
817	8.160	275.79309	150.99776	292.42413	278.31442	147.57483	156.41071	
818	8.170	275.78995	150.99844	292.42517	278.31454	147.57501	156.40999	
819	8.180	275.78625	150.99915	292.42657	278.31570	147.57480	156.40933	
820	8.190	275.78339	150.99963	292.42773	278.31790	147.57430	156.40878	
821	8.200	275.78244	150.99973	292.42822	278.32101	147.57343	156.40842	
822	8.210	275.78363	150.99940	292.42792	278.32510	147.57225	156.40833	
823	8.220	275.78653	150.99873	292.42700	278.33026	147.57083	156.40823	
824	8.230	275.79022	150.99788	292.42587	278.33633	147.56924	156.40794	
825	8.240	275.79410	150.99698	292.42465	278.34268	147.56755	156.40732	
826	8.250	275.79788	150.99620	292.42331	278.34845	147.56599	156.40636	
827	8.260	275.80121	150.99571	292.42184	278.35321	147.56508	156.40503	
828	8.270	275.80347	150.99565	292.42044	278.35742	147.56531	156.40320	
829	8.280	275.80405	150.99608	292.41940	278.36169	147.56680	156.40080	
830	8.290	275.80267	150.99690	292.41907	278.36594	147.56927	156.39819	
831	8.300	275.79935	150.99800	292.41965	278.36908	147.57213	156.39606	
832	8.310	275.79453	150.99918	292.42105	278.36975	147.57477	156.39514	
833	8.320	275.78897	151.00029	292.42303	278.36703	147.57687	156.39600	
834	8.330	275.78342	151.00124	292.42529	278.36124	147.57835	156.39862	
835	8.340	275.77820	151.00197	292.42761	278.35318	147.57925	156.40273	
836	8.350	275.77353	151.00253	292.42987	278.34402	147.57970	156.40775	
837	8.360	275.76996	151.00288	292.43170	278.33524	147.57991	156.41270	
838	8.370	275.76813	151.00293	292.43283	278.32874	147.58028	156.41653	
839	8.380	275.76837	151.00266	292.43311	278.32574	147.58112	156.41855	
840	8.390	275.77063	151.00208	292.43250	278.32623	147.58250	156.41888	
841	8.400	275.77454	151.00125	292.43115	278.32919	147.58443	156.41821	
842	8.410	275.77954	151.00027	292.42929	278.33368	147.58678	156.41696	
843	8.420	275.78513	150.99919	292.42725	278.33902	147.58920	156.41507	
844	8.430	275.79089	150.99806	292.42514	278.34427	147.59105	156.41219	
845	8.440	275.79663	150.99693	292.42303	278.34839	147.59166	156.40836	
846	8.450	275.80215	150.99588	292.42096	278.35065	147.59073	156.40395	
847	8.460	275.80682	150.99501	292.41919	278.35107	147.58855	156.39972	
848	8.470	275.80988	150.99448	292.41800	278.35013	147.58585	156.39642	
849	8.480	275.81058	150.99434	292.41772	278.34860	147.58344	156.39456	
850	8.490	275.80881	150.99460	292.41849	278.34705	147.58177	156.39430	
851	8.500	275.80484	150.99518	292.42026	278.34546	147.58080	156.39558	
852	8.510	275.79941	150.99599	292.42261	278.34351	147.58022	156.39825	
853	8.520	275.79330	150.99696	292.42517	278.34067	147.57979	156.40205	
854	8.530	275.78729	150.99799	292.42761	278.33685	147.57939	156.40656	
855	8.540	275.78189	150.99896	292.42972	278.33234	147.57903	156.41116	
856	8.550	275.77734	150.99982	292.43146	278.32788	147.57877	156.41522	
857	8.560	275.77371	151.00052	292.43277	278.32465	147.57880	156.41818	
858	8.570	275.77094	151.00110	292.43375	278.32361	147.57919	156.41959	
859	8.580	275.76913	151.00150	292.43433	278.32498	147.57976	156.41928	
860	8.590	275.76855	151.00166	292.43445	278.32840	147.58029	156.41745	
861	8.600	275.76929	151.00160	292.43408	278.33310	147.58080	156.41466	
862	8.610	275.77090	151.00136	292.43338	278.33832	147.58136	156.41162	
863	8.620	275.77255	151.00110	292.43268	278.34296	147.58188	156.40903	
864	8.630	275.77332	151.00101	292.43231	278.34610	147.58205	156.40735	
865	8.640	275.77252	151.00122	292.43250	278.34726	147.58180	156.40686	
866	8.650	275.77020	151.00177	292.43323	278.34644	147.58141	156.40764	
867	8.660	275.76700	151.00252	292.43420	278.34372	147.58113	156.40961	
868	8.670	275.76382	151.00328	292.43515	278.33896	147.58095	156.41266	
869	8.680	275.76147	151.00389	292.43576	278.33215	147.58058	156.41656	
870	8.690	275.76038	151.00429	292.43591	278.32397	147.57979	156.42081	
871	8.700	275.76038	151.00449	292.43561	278.31570	147.57867	156.42484	
872	8.710	275.76083	151.00462	292.43512	278.30872	147.57756	156.42813	
873	8.720	275.76102	151.00487	292.43463	278.30438	147.57684	156.43031	
874	8.730	275.76068	151.00525	292.43430	278.30371	147.57671	156.43083	
875	8.740	275.76025	151.00569	292.43390	278.30695	147.57713	156.42938	
876	8.750	275.76013	151.00607	292.43341	278.31339	147.57802	156.42627	
877	8.760	275.76065	151.00630	292.43274	278.32162	147.57922	156.42210	
878	8.770	275.76199	151.00629	292.43188	278.33017	147.58043	156.41757	
879	8.780	275.76392	151.00600	292.43103	278.33765	147.58130	156.41312	
880	8.790	275.76593	151.00549	292.43045	278.34308	147.58162	156.40915	
881	8.800	275.76785	151.00478	292.43024	278.34595	147.58138	156.40613	
882	8.810	275.77002	151.00381	292.43030	278.34644	147.58070	156.40436	
883	8.820	275.77277	151.00258	292.43036	278.34509	147.57994	156.40393	
884	8.830	275.77573	151.00122	292.43042	278.34286	147.57951	156.40451	
885	8.840	275.77795	151.00006	292.43066	278.34064	147.57964	156.40552	
886	8.850	275.77859	150.99937	292.43127	278.33884	147.58025	156.40662	
887	8.860	275.77753	150.99928	292.43213	278.33755	147.58107	156.40765	
888	8.870	275.77533	150.99966	292.43304	278.33688	147.58197	156.40872	
889	8.880	275.77289	151.00026	292.43372	278.33698	147.58292	156.40982	
